<svg version="1.1" xmlns="http://www.w3.org/2000/svg" x="0" y="0" viewBox="0 0 500 500" xml:space="preserve"><style>.st0{fill:#238781}.st1{fill:#fff}</style><path class="st0" d="M0 0h500v500H0z"/><path class="st1" d="M344.24 369.75H159.59c-14.06 0-25.47-11.4-25.47-25.47V159.63c0-14.06 11.4-25.47 25.47-25.47h184.65c14.06 0 25.47 11.4 25.47 25.47v184.65c-.01 14.06-11.41 25.47-25.47 25.47z"/><circle class="st0" cx="196.14" cy="200.68" r="9.51"/><path class="st0" d="M226.01 191.17c-5.25 0-9.51 4.26-9.51 9.51s4.26 9.51 9.51 9.51h81.76c5.25 0 9.51-4.26 9.51-9.51s-4.26-9.51-9.51-9.51h-81.76z"/><circle class="st0" cx="211.86" cy="234.74" r="9.51"/><path class="st0" d="M241.73 225.23c-5.25 0-9.51 4.26-9.51 9.51s4.26 9.51 9.51 9.51h66.04c5.25 0 9.51-4.26 9.51-9.51s-4.26-9.51-9.51-9.51h-66.04z"/><circle class="st0" cx="211.86" cy="268.81" r="9.51"/><path class="st0" d="M241.73 259.29c-5.25 0-9.51 4.26-9.51 9.51s4.26 9.51 9.51 9.51h66.04c5.25 0 9.51-4.26 9.51-9.51s-4.26-9.51-9.51-9.51h-66.04z"/><circle class="st0" cx="196.14" cy="302.87" r="9.51"/><path class="st0" d="M226.01 293.36c-5.25 0-9.51 4.26-9.51 9.51s4.26 9.51 9.51 9.51h81.76c5.25 0 9.51-4.26 9.51-9.51s-4.26-9.51-9.51-9.51h-81.76z"/><path class="st0" d="M0 0h500v500H0z"/><g><path class="st1" d="M370.4 397.91H129.42c-14.06 0-25.47-11.4-25.47-25.47V131.47c0-14.06 11.4-25.47 25.47-25.47H370.4c14.06 0 25.47 11.4 25.47 25.47v240.98c0 14.06-11.4 25.46-25.47 25.46z"/><circle class="st0" cx="180.8" cy="188.42" r="11.79"/><path class="st0" d="M217.81 176.63c-6.51 0-11.79 5.28-11.79 11.79s5.28 11.79 11.79 11.79h101.32c6.51 0 11.79-5.28 11.79-11.79s-5.28-11.79-11.79-11.79H217.81z"/><circle class="st0" cx="200.29" cy="230.63" r="11.79"/><path class="st0" d="M237.3 218.84c-6.51 0-11.79 5.28-11.79 11.79s5.28 11.79 11.79 11.79h81.83c6.51 0 11.79-5.28 11.79-11.79s-5.28-11.79-11.79-11.79H237.3z"/><circle class="st0" cx="200.29" cy="272.83" r="11.79"/><path class="st0" d="M237.3 261.05c-6.51 0-11.79 5.28-11.79 11.79 0 6.51 5.28 11.79 11.79 11.79h81.83c6.51 0 11.79-5.28 11.79-11.79 0-6.51-5.28-11.79-11.79-11.79H237.3z"/><circle class="st0" cx="180.8" cy="315.04" r="11.79"/><path class="st0" d="M217.81 303.26c-6.51 0-11.79 5.28-11.79 11.79s5.28 11.79 11.79 11.79h101.32c6.51 0 11.79-5.28 11.79-11.79s-5.28-11.79-11.79-11.79H217.81z"/></g></svg>